# xmcd CD database file
#
# Track frame offsets:
#	150
#	27209
#	53956
#	70843
#	83410
#	103142
#	127795
#	154239
#	174323
#	205269
#	236299
#	261248
#
# Disc length: 3845 seconds
#
# Revision: 4
# Processed by: cddbd v1.5.2PL0 Copyright (c) Steve Scherf et al.
# Submitted via: jetAudio 7
#
DISCID=940f030c
DTITLE=Native Spirit - Nativ American Flutes Evoke a Meditative Musical
DTITLE=Journey
DYEAR=2002
DGENRE=New Age
TTITLE0=Cave Dweller
TTITLE1=Pueblo Sunset
TTITLE2=Navajo Spirit
TTITLE3=Rain Dance
TTITLE4=Ancestral Rite
TTITLE5=Brave Warrior
TTITLE6=Burning Sky
TTITLE7=Sequela
TTITLE8=Ghost Canyon
TTITLE9=Spirit Dancer
TTITLE10=Mohican Dream
TTITLE11=Desert Sun
EXTD=YEAR: 2002
EXTT0=
EXTT1=
EXTT2=
EXTT3=
EXTT4=
EXTT5=
EXTT6=
EXTT7=
EXTT8=
EXTT9=
EXTT10=
EXTT11=
PLAYORDER=
